<svg width="34" height="34" viewBox="0 0 34 34" fill="none" xmlns="http://www.w3.org/2000/svg">
<path d="M26.3827 10.8852C26.1563 10.6651 25.8385 10.5651 25.5276 10.6163C25.2161 10.6672 24.9471 10.8628 24.8026 11.1434C24.3056 12.1089 23.6744 12.9961 22.9317 13.7805C23.0057 13.2139 23.043 12.6439 23.043 12.0724C23.043 10.9759 22.896 9.84742 22.606 8.71805C21.6526 5.00853 19.1524 1.87144 15.7467 0.111205C15.4502 -0.0419942 15.0969 -0.0366153 14.8052 0.125549C14.5135 0.287779 14.3224 0.585213 14.2963 0.917908C14.0308 4.28895 12.2944 7.35586 9.52969 9.33424C9.4931 9.3606 9.45678 9.38729 9.42045 9.41386C9.34521 9.46891 9.27429 9.52097 9.20802 9.56467C9.19766 9.57157 9.18737 9.57861 9.17727 9.58585C7.43849 10.8308 6.00378 12.4903 5.02808 14.3854C4.03663 16.3131 3.53394 18.3818 3.53394 20.5336C3.53394 21.6299 3.68089 22.7583 3.97076 23.8879C5.50042 29.8417 10.8583 33.9999 17.0003 33.9999C24.4252 33.9999 30.4658 27.9589 30.4658 20.5336C30.4658 16.872 29.0157 13.4454 26.3827 10.8852Z" fill="#FF5555"/>
<circle cx="16" cy="20" r="4" fill="white"/>
</svg>
